<svg width="20" height="20" viewBox="0 0 20 20" fill="none" xmlns="http://www.w3.org/2000/svg">
<path fill-rule="evenodd" clip-rule="evenodd" d="M14.5833 17.5H5.41667C4.49583 17.5 3.75 16.7542 3.75 15.8333V4.16667C3.75 3.24583 4.49583 2.5 5.41667 2.5H14.5833C15.5042 2.5 16.25 3.24583 16.25 4.16667V15.8333C16.25 16.7542 15.5042 17.5 14.5833 17.5Z" stroke="#0F1114" stroke-width="1.25" stroke-linecap="round" stroke-linejoin="round"/>
<path d="M11.6666 6.24992H13.3333" stroke="#0F1114" stroke-width="1.25" stroke-linecap="round" stroke-linejoin="round"/>
<path d="M11.6666 8.74992H13.3333" stroke="#0F1114" stroke-width="1.25" stroke-linecap="round" stroke-linejoin="round"/>
<path d="M6.66663 12.4999H13.3333" stroke="#0F1114" stroke-width="1.25" stroke-linecap="round" stroke-linejoin="round"/>
<path d="M6.66663 14.9999H13.3333" stroke="#0F1114" stroke-width="1.25" stroke-linecap="round" stroke-linejoin="round"/>
<path d="M7.91667 5.62492V4.99992" stroke="#0F1114" stroke-width="1.25" stroke-linecap="round" stroke-linejoin="round"/>
<path d="M7.91667 9.37492V9.99992" stroke="#0F1114" stroke-width="1.25" stroke-linecap="round" stroke-linejoin="round"/>
<path d="M6.83163 8.92833C6.99329 9.19333 7.26996 9.37667 7.60413 9.37667H7.91663H8.28913C8.77413 9.37667 9.16663 8.98333 9.16663 8.49917C9.16663 8.09667 8.89246 7.74583 8.50246 7.6475L7.33079 7.35417C6.94079 7.25583 6.66663 6.905 6.66663 6.5025C6.66663 6.01833 7.05996 5.625 7.54413 5.625H7.91663H8.22913C8.56246 5.625 8.83829 5.8075 8.99996 6.07167" stroke="#0F1114" stroke-width="1.25" stroke-linecap="round" stroke-linejoin="round"/>
</svg>
