<svg width="20" height="20" viewBox="0 0 20 20" fill="none" xmlns="http://www.w3.org/2000/svg">
<path d="M1.66669 10.8334H18.3334" stroke="#00091A" stroke-width="1.25" stroke-linecap="round" stroke-linejoin="round"/>
<path d="M17.5 10.8333L17.0462 13.7376C16.7828 15.4236 15.3306 16.6666 13.6241 16.6666H6.37589C4.6694 16.6666 3.21718 15.4236 2.95377 13.7376L2.5 10.8333" stroke="#00091A" stroke-width="1.25" stroke-linecap="round" stroke-linejoin="round"/>
<path d="M5.10938 16.4229L4.16669 17.5001" stroke="#00091A" stroke-width="1.25" stroke-linecap="round" stroke-linejoin="round"/>
<path d="M14.8906 16.4229L15.8333 17.5001" stroke="#00091A" stroke-width="1.25" stroke-linecap="round" stroke-linejoin="round"/>
<path fill-rule="evenodd" clip-rule="evenodd" d="M9.07351 5H9.25986C10.1431 5 10.9273 5.5652 11.2066 6.40314V6.40314C11.2913 6.65727 11.2487 6.93662 11.0921 7.15393C10.9355 7.37123 10.6839 7.5 10.416 7.5H7.91733C7.64946 7.5 7.39792 7.37123 7.24129 7.15393C7.08466 6.93662 7.04205 6.65727 7.12676 6.40314V6.40314C7.40607 5.5652 8.19024 5 9.07351 5V5Z" stroke="#00091A" stroke-width="1.25" stroke-linecap="round" stroke-linejoin="round"/>
<path d="M9.16669 5V5C9.16669 3.61929 8.0474 2.5 6.66669 2.5V2.5C5.28598 2.5 4.16669 3.61929 4.16669 5V10.8333" stroke="#00091A" stroke-width="1.25" stroke-linecap="round" stroke-linejoin="round"/>
</svg>
