<svg width="20" height="20" viewBox="0 0 20 20" fill="none" xmlns="http://www.w3.org/2000/svg">
<path fill-rule="evenodd" clip-rule="evenodd" d="M16.6667 10H3.33335C2.41252 10 1.66669 10.7458 1.66669 11.6667V14.1108C1.66669 14.5708 2.04002 14.9442 2.50002 14.9442H17.5C17.96 14.9442 18.3334 14.5708 18.3334 14.1108V11.6667C18.3334 10.7458 17.5875 10 16.6667 10Z" stroke="#00091A" stroke-width="1.25" stroke-linecap="round" stroke-linejoin="round"/>
<path d="M3.33331 10.0001V5.77759C3.33331 4.39675 4.45248 3.27759 5.83331 3.27759H14.1666C15.5475 3.27759 16.6666 4.39675 16.6666 5.77759V10.0001" stroke="#00091A" stroke-width="1.25" stroke-linecap="round" stroke-linejoin="round"/>
<path d="M17.5 15V16.6083" stroke="#00091A" stroke-width="1.25" stroke-linecap="round" stroke-linejoin="round"/>
<path d="M2.49998 15V16.6083" stroke="#00091A" stroke-width="1.25" stroke-linecap="round" stroke-linejoin="round"/>
<path d="M6.25 10V10C6.25 8.61917 7.36917 7.5 8.75 7.5H11.25C12.6308 7.5 13.75 8.61917 13.75 10V10" stroke="#00091A" stroke-width="1.25" stroke-linecap="round" stroke-linejoin="round"/>
</svg>
