<svg width="20" height="20" viewBox="0 0 20 20" fill="none" xmlns="http://www.w3.org/2000/svg">
<rect x="2.49683" y="2.49707" width="15.0062" height="15.0062" rx="3" stroke="#0F1114" stroke-width="1.25" stroke-linecap="round" stroke-linejoin="round"/>
<path d="M17.5031 6.66538H2.49683" stroke="#0F1114" stroke-width="1.25" stroke-linecap="round" stroke-linejoin="round"/>
<path d="M14.4185 9.58334C14.4185 9.60637 14.3998 9.62503 14.3768 9.62503C14.3538 9.62503 14.3351 9.60637 14.3351 9.58334C14.3351 9.56032 14.3538 9.54166 14.3768 9.54166" stroke="#0F1114" stroke-width="1.25" stroke-linecap="round" stroke-linejoin="round"/>
<path d="M14.3768 9.54151C14.3999 9.54151 14.4185 9.56017 14.4185 9.58319" stroke="#0F1114" stroke-width="1.25" stroke-linecap="round" stroke-linejoin="round"/>
<path d="M11.4998 9.58334C11.4998 9.60637 11.4811 9.62503 11.4581 9.62503C11.4351 9.62503 11.4164 9.60637 11.4164 9.58334C11.4164 9.56032 11.4351 9.54166 11.4581 9.54166" stroke="#0F1114" stroke-width="1.25" stroke-linecap="round" stroke-linejoin="round"/>
<path d="M11.4581 9.54151C11.4812 9.54151 11.4998 9.56017 11.4998 9.58319" stroke="#0F1114" stroke-width="1.25" stroke-linecap="round" stroke-linejoin="round"/>
<path d="M8.58194 9.58334C8.58194 9.60637 8.56327 9.62503 8.54025 9.62503C8.51723 9.62503 8.49857 9.60637 8.49857 9.58334C8.49857 9.56032 8.51723 9.54166 8.54025 9.54166" stroke="#0F1114" stroke-width="1.25" stroke-linecap="round" stroke-linejoin="round"/>
<path d="M8.54016 9.54151C8.56318 9.54151 8.58185 9.56017 8.58185 9.58319" stroke="#0F1114" stroke-width="1.25" stroke-linecap="round" stroke-linejoin="round"/>
<path d="M5.66397 12.0843C5.66397 12.1073 5.64531 12.126 5.62228 12.126C5.59926 12.126 5.5806 12.1073 5.5806 12.0843C5.5806 12.0613 5.59926 12.0426 5.62228 12.0426" stroke="#0F1114" stroke-width="1.25" stroke-linecap="round" stroke-linejoin="round"/>
<path d="M5.62232 12.0427C5.64534 12.0427 5.664 12.0614 5.664 12.0844" stroke="#0F1114" stroke-width="1.25" stroke-linecap="round" stroke-linejoin="round"/>
<path d="M8.58194 12.0843C8.58194 12.1073 8.56327 12.126 8.54025 12.126C8.51723 12.126 8.49857 12.1073 8.49857 12.0843C8.49857 12.0613 8.51723 12.0426 8.54025 12.0426" stroke="#0F1114" stroke-width="1.25" stroke-linecap="round" stroke-linejoin="round"/>
<path d="M8.54016 12.0427C8.56318 12.0427 8.58185 12.0614 8.58185 12.0844" stroke="#0F1114" stroke-width="1.25" stroke-linecap="round" stroke-linejoin="round"/>
<path d="M11.4998 12.0843C11.4998 12.1073 11.4811 12.126 11.4581 12.126C11.4351 12.126 11.4164 12.1073 11.4164 12.0843C11.4164 12.0613 11.4351 12.0426 11.4581 12.0426" stroke="#0F1114" stroke-width="1.25" stroke-linecap="round" stroke-linejoin="round"/>
<path d="M11.4581 12.0427C11.4812 12.0427 11.4998 12.0614 11.4998 12.0844" stroke="#0F1114" stroke-width="1.25" stroke-linecap="round" stroke-linejoin="round"/>
<path d="M14.4185 12.0843C14.4185 12.1073 14.3998 12.126 14.3768 12.126C14.3538 12.126 14.3351 12.1073 14.3351 12.0843C14.3351 12.0613 14.3538 12.0426 14.3768 12.0426" stroke="#0F1114" stroke-width="1.25" stroke-linecap="round" stroke-linejoin="round"/>
<path d="M14.3768 12.0427C14.3999 12.0427 14.4185 12.0614 14.4185 12.0844" stroke="#0F1114" stroke-width="1.25" stroke-linecap="round" stroke-linejoin="round"/>
<path d="M14.4185 14.5853C14.4185 14.6083 14.3998 14.627 14.3768 14.627C14.3538 14.627 14.3351 14.6083 14.3351 14.5853C14.3351 14.5623 14.3538 14.5436 14.3768 14.5436" stroke="#0F1114" stroke-width="1.25" stroke-linecap="round" stroke-linejoin="round"/>
<path d="M14.3768 14.5437C14.3999 14.5437 14.4185 14.5624 14.4185 14.5854" stroke="#0F1114" stroke-width="1.25" stroke-linecap="round" stroke-linejoin="round"/>
<path d="M11.4998 14.5853C11.4998 14.6083 11.4811 14.627 11.4581 14.627C11.4351 14.627 11.4164 14.6083 11.4164 14.5853C11.4164 14.5623 11.4351 14.5436 11.4581 14.5436" stroke="#0F1114" stroke-width="1.25" stroke-linecap="round" stroke-linejoin="round"/>
<path d="M11.4581 14.5437C11.4812 14.5437 11.4998 14.5624 11.4998 14.5854" stroke="#0F1114" stroke-width="1.25" stroke-linecap="round" stroke-linejoin="round"/>
<path d="M8.58194 14.5853C8.58194 14.6083 8.56327 14.627 8.54025 14.627C8.51723 14.627 8.49857 14.6083 8.49857 14.5853C8.49857 14.5623 8.51723 14.5436 8.54025 14.5436" stroke="#0F1114" stroke-width="1.25" stroke-linecap="round" stroke-linejoin="round"/>
<path d="M8.54016 14.5437C8.56318 14.5437 8.58185 14.5624 8.58185 14.5854" stroke="#0F1114" stroke-width="1.25" stroke-linecap="round" stroke-linejoin="round"/>
<path d="M5.66397 14.5853C5.66397 14.6083 5.64531 14.627 5.62228 14.627C5.59926 14.627 5.5806 14.6083 5.5806 14.5853C5.5806 14.5623 5.59926 14.5436 5.62228 14.5436" stroke="#0F1114" stroke-width="1.25" stroke-linecap="round" stroke-linejoin="round"/>
<path d="M5.62232 14.5437C5.64534 14.5437 5.664 14.5624 5.664 14.5854" stroke="#0F1114" stroke-width="1.25" stroke-linecap="round" stroke-linejoin="round"/>
</svg>
