<svg width="20" height="20" viewBox="0 0 20 20" fill="none" xmlns="http://www.w3.org/2000/svg">
<path fill-rule="evenodd" clip-rule="evenodd" d="M15.4433 7.5H4.55662C4.08328 7.5 3.69995 7.11667 3.69995 6.64417V5.85583C3.69995 5.38333 4.08328 5 4.55662 5H15.4441C15.9166 5 16.3 5.38333 16.3 5.85583V6.64333C16.3 7.11667 15.9166 7.5 15.4433 7.5V7.5Z" stroke="#0F1114" stroke-width="1.25" stroke-linecap="round" stroke-linejoin="round"/>
<path d="M15 7.5L14.2942 15.9717C14.2217 16.8358 13.5 17.5 12.6333 17.5H7.36667C6.5 17.5 5.7775 16.8358 5.70583 15.9717L5 7.5" stroke="#0F1114" stroke-width="1.25" stroke-linecap="round" stroke-linejoin="round"/>
<path d="M6.6665 5L7.6865 2.96083C7.82734 2.67833 8.11567 2.5 8.4315 2.5H11.5682C11.884 2.5 12.1723 2.67833 12.3132 2.96083L13.3332 5" stroke="#0F1114" stroke-width="1.25" stroke-linecap="round" stroke-linejoin="round"/>
<path d="M9.99992 10V15" stroke="#0F1114" stroke-width="1.25" stroke-linecap="round" stroke-linejoin="round"/>
<path d="M12.4999 10L12.1582 15" stroke="#0F1114" stroke-width="1.25" stroke-linecap="round" stroke-linejoin="round"/>
<path d="M7.49998 10L7.84165 15" stroke="#0F1114" stroke-width="1.25" stroke-linecap="round" stroke-linejoin="round"/>
</svg>
