<svg width="20" height="20" viewBox="0 0 20 20" fill="none" xmlns="http://www.w3.org/2000/svg">
<path fill-rule="evenodd" clip-rule="evenodd" d="M15.345 5.345L12.9883 2.98833C12.6758 2.67583 12.2516 2.5 11.81 2.5H5.83329C4.91246 2.5 4.16663 3.24583 4.16663 4.16667V15.8333C4.16663 16.7542 4.91246 17.5 5.83329 17.5H14.1666C15.0875 17.5 15.8333 16.7542 15.8333 15.8333V6.52333C15.8333 6.08167 15.6575 5.6575 15.345 5.345V5.345Z" stroke="#0F1114" stroke-width="1.25" stroke-linecap="round" stroke-linejoin="round"/>
<path d="M15.8333 6.66667H12.5C12.04 6.66667 11.6666 6.29333 11.6666 5.83333V2.5" stroke="#0F1114" stroke-width="1.25" stroke-linecap="round" stroke-linejoin="round"/>
<path d="M6.66663 9.16667H11.6666" stroke="#0F1114" stroke-width="1.25" stroke-linecap="round" stroke-linejoin="round"/>
<path d="M6.66663 11.6667H11.6666" stroke="#0F1114" stroke-width="1.25" stroke-linecap="round" stroke-linejoin="round"/>
<path d="M6.66663 14.1667H10.275" stroke="#0F1114" stroke-width="1.25" stroke-linecap="round" stroke-linejoin="round"/>
</svg>
