<svg width="16" height="16" viewBox="0 0 16 16" fill="none" xmlns="http://www.w3.org/2000/svg">
<path d="M13.3337 5.66667H11.0003C10.2639 5.66667 9.66699 5.06971 9.66699 4.33333V2" stroke="white" stroke-width="1.25" stroke-linecap="round" stroke-linejoin="round"/>
<path d="M8.00033 14.0003V10.667" stroke="white" stroke-width="1.25" stroke-linecap="round" stroke-linejoin="round"/>
<path d="M8.00033 10.667L6.66699 12.0003" stroke="white" stroke-width="1.25" stroke-linecap="round" stroke-linejoin="round"/>
<path d="M9.33333 12.0003L8 10.667" stroke="white" stroke-width="1.25" stroke-linecap="round" stroke-linejoin="round"/>
<path d="M11.3337 14C12.4382 14 13.3337 13.1046 13.3337 12V5.49509C13.3337 4.96466 13.1229 4.45595 12.7479 4.08088L11.2528 2.58579C10.8777 2.21071 10.369 2 9.83857 2H4.66699C3.56242 2 2.66699 2.89543 2.66699 4V12C2.66699 13.1046 3.56242 14 4.66699 14" stroke="white" stroke-width="1.25" stroke-linecap="round" stroke-linejoin="round"/>
<path d="M4.66699 14.0003H5.33366" stroke="white" stroke-width="1.25" stroke-linecap="round" stroke-linejoin="round"/>
<path d="M10.667 14.0003H11.3337" stroke="white" stroke-width="1.25" stroke-linecap="round" stroke-linejoin="round"/>
</svg>
