<svg width="40" height="40" viewBox="0 0 40 40" fill="none" xmlns="http://www.w3.org/2000/svg">
<circle cx="20" cy="20" r="20" fill="#00091A"/>
<g opacity="0.8" clip-path="url(#clip0_35_273)">
<path d="M16.6866 12.0562C15.8354 12.0964 15.2542 12.2322 14.746 12.4319C14.2201 12.6368 13.7743 12.9119 13.3308 13.357C12.8873 13.8021 12.6142 14.2482 12.4106 14.7749C12.2137 15.2842 12.0802 15.866 12.0426 16.7176C12.005 17.5693 11.9967 17.8431 12.0009 20.0156C12.005 22.188 12.0146 22.4604 12.0559 23.3138C12.0966 24.1648 12.2319 24.746 12.4316 25.2543C12.6369 25.7802 12.9116 26.2258 13.3569 26.6695C13.8022 27.1132 14.2479 27.3856 14.7759 27.5895C15.2847 27.7861 15.8666 27.9202 16.7182 27.9575C17.5697 27.9948 17.8438 28.0034 20.0156 27.9992C22.1875 27.9951 22.4609 27.9855 23.3142 27.945C24.1674 27.9045 24.7455 27.7682 25.254 27.5695C25.7799 27.3637 26.2259 27.0895 26.6692 26.644C27.1126 26.1986 27.3855 25.7522 27.5889 25.2252C27.786 24.7164 27.9199 24.1344 27.9569 23.2836C27.9942 22.4296 28.003 22.157 27.9988 19.9848C27.9946 17.8127 27.9849 17.5404 27.9444 16.6872C27.9039 15.8341 27.7684 15.2548 27.5689 14.7461C27.3633 14.2202 27.0889 13.7749 26.6438 13.3309C26.1986 12.8869 25.7519 12.6141 25.225 12.4112C24.7159 12.2143 24.1343 12.08 23.2828 12.0432C22.4313 12.0064 22.1572 11.997 19.9846 12.0012C17.8119 12.0053 17.5399 12.0146 16.6866 12.0562ZM16.7801 26.5183C16.0001 26.4844 15.5766 26.3548 15.2943 26.2463C14.9206 26.1023 14.6543 25.9282 14.373 25.6496C14.0918 25.3711 13.919 25.1039 13.773 24.7309C13.6634 24.4487 13.5314 24.0256 13.495 23.2456C13.4553 22.4026 13.447 22.1495 13.4423 20.0136C13.4377 17.8778 13.4458 17.625 13.4828 16.7816C13.5161 16.0023 13.6465 15.5783 13.7548 15.2962C13.8988 14.922 14.0722 14.6562 14.3514 14.3751C14.6306 14.094 14.897 13.9208 15.2703 13.7749C15.5522 13.6648 15.9753 13.534 16.755 13.4968C17.5986 13.4568 17.8514 13.4488 19.987 13.4442C22.1225 13.4396 22.3759 13.4476 23.2199 13.4847C23.9993 13.5186 24.4234 13.6477 24.7052 13.7567C25.0791 13.9007 25.3452 14.0736 25.6263 14.3533C25.9074 14.633 26.0807 14.8984 26.2266 15.2725C26.3369 15.5536 26.4678 15.9765 26.5046 16.7567C26.5447 17.6004 26.5538 17.8533 26.5577 19.9887C26.5615 22.124 26.554 22.3776 26.517 23.2207C26.483 24.0007 26.3537 24.4244 26.245 24.7069C26.101 25.0805 25.9274 25.3469 25.6481 25.6279C25.3687 25.9088 25.1026 26.082 24.7292 26.2279C24.4476 26.3378 24.0241 26.469 23.245 26.5061C22.4014 26.5458 22.1486 26.5541 20.0122 26.5588C17.8759 26.5634 17.6239 26.5548 16.7802 26.5183M23.3018 15.7245C23.3022 15.9144 23.3588 16.0999 23.4646 16.2576C23.5703 16.4153 23.7205 16.5381 23.896 16.6105C24.0716 16.6828 24.2647 16.7015 24.4508 16.6641C24.637 16.6268 24.8079 16.535 24.9419 16.4005C25.0759 16.266 25.1671 16.0947 25.2038 15.9084C25.2404 15.7221 25.2211 15.5291 25.1481 15.3538C25.0751 15.1785 24.9517 15.0288 24.7936 14.9237C24.6355 14.8185 24.4498 14.7625 24.2599 14.7629C24.0054 14.7634 23.7614 14.865 23.5818 15.0453C23.4021 15.2257 23.3014 15.47 23.3018 15.7245ZM15.8922 20.0082C15.8967 22.277 17.7393 24.112 20.0076 24.1077C22.2759 24.1034 24.1122 22.261 24.1079 19.9922C24.1036 17.7234 22.2606 15.8879 19.9919 15.8924C17.7233 15.8968 15.8879 17.7397 15.8922 20.0082ZM17.3332 20.0053C17.3322 19.4779 17.4875 18.962 17.7797 18.5229C18.0719 18.0838 18.4877 17.7411 18.9745 17.5383C19.4614 17.3355 19.9975 17.2817 20.515 17.3835C21.0325 17.4854 21.5082 17.7384 21.8818 18.1107C22.2555 18.4829 22.5104 18.9575 22.6144 19.4746C22.7183 19.9917 22.6665 20.528 22.4657 21.0157C22.2648 21.5033 21.9238 21.9205 21.4859 22.2144C21.0479 22.5083 20.5326 22.6657 20.0052 22.6668C19.655 22.6675 19.3081 22.5992 18.9842 22.4659C18.6604 22.3325 18.366 22.1367 18.1179 21.8895C17.8698 21.6424 17.6728 21.3488 17.5381 21.0255C17.4035 20.7022 17.3339 20.3555 17.3332 20.0053Z" fill="white"/>
</g>
<defs>
<clipPath id="clip0_35_273">
<rect width="16" height="16" fill="white" transform="translate(12 12)"/>
</clipPath>
</defs>
</svg>
