<svg width="20" height="20" viewBox="0 0 20 20" fill="none" xmlns="http://www.w3.org/2000/svg">
<path fill-rule="evenodd" clip-rule="evenodd" d="M6.66663 3.33341L7.74996 1.97925C7.90829 1.78175 8.14746 1.66675 8.40079 1.66675H11.6C11.8533 1.66675 12.0925 1.78175 12.2508 1.97925L13.3333 3.33341V3.33341V4.16675C13.3333 4.62675 12.96 5.00008 12.5 5.00008H7.49996C7.03996 5.00008 6.66663 4.62675 6.66663 4.16675V3.33341V3.33341H6.66663Z" stroke="#0F1114" stroke-width="1.255" stroke-linecap="round" stroke-linejoin="round"/>
<path d="M6.66671 3.33325H5.00004C4.07921 3.33325 3.33337 4.07909 3.33337 4.99992V15.8333C3.33337 16.7541 4.07921 17.4999 5.00004 17.4999H15C15.9209 17.4999 16.6667 16.7541 16.6667 15.8333V4.99992C16.6667 4.07909 15.9209 3.33325 15 3.33325H13.3334" stroke="#0F1114" stroke-width="1.255" stroke-linecap="round" stroke-linejoin="round"/>
<path d="M6.66663 9.16667H13.3333" stroke="#0F1114" stroke-width="1.255" stroke-linecap="round" stroke-linejoin="round"/>
<path d="M6.66663 13.3334H13.3333" stroke="#0F1114" stroke-width="1.255" stroke-linecap="round" stroke-linejoin="round"/>
</svg>
