<svg width="20" height="20" viewBox="0 0 20 20" fill="none" xmlns="http://www.w3.org/2000/svg">
<path fill-rule="evenodd" clip-rule="evenodd" d="M9.38863 8.0018L3.04048 14.35C2.69442 14.6961 2.5 15.1654 2.5 15.6549C2.5 16.1443 2.69442 16.6136 3.04048 16.9597V16.9597C3.76111 17.6803 4.92947 17.6803 5.6501 16.9597L11.9983 10.6115C13.0553 10.9729 14.2133 10.8926 15.2102 10.3886C16.2071 9.88468 16.9585 8.99979 17.2942 7.93438C17.4722 7.39938 17.5354 6.83289 17.4799 6.2718C17.4374 5.95744 17.2197 5.69466 16.9187 5.59445C16.6178 5.49424 16.286 5.57408 16.0636 5.80025L14.5599 7.304C14.4817 7.38215 14.3757 7.42605 14.2652 7.42605C14.1547 7.42605 14.0487 7.38215 13.9706 7.304L12.6961 6.02955C12.5334 5.86684 12.533 5.60342 12.8517 5.28478L14.2 3.93652C14.4262 3.71411 14.506 3.38236 14.4058 3.0814C14.3056 2.78044 14.0429 2.56274 13.7285 2.52026C13.1684 2.46481 12.6029 2.52776 12.0686 2.70504C11.0025 3.04012 10.1168 3.7914 9.61225 4.78857C9.10771 5.78575 9.02708 6.94438 9.38865 8.00183L9.38863 8.0018Z" stroke="#0F1114" stroke-width="1.25" stroke-linecap="round" stroke-linejoin="round"/>
</svg>
