<svg width="16" height="16" viewBox="0 0 16 16" fill="none" xmlns="http://www.w3.org/2000/svg">
<path d="M10.0041 2.00879V6.00379" stroke="#0F1114" stroke-width="1.25" stroke-linecap="round" stroke-linejoin="round"/>
<path d="M6.00242 3.18945V12.6734" stroke="#0F1114" stroke-width="1.25" stroke-linecap="round" stroke-linejoin="round"/>
<path d="M14.0057 6.6704V3.74451C14.0057 3.45706 13.8217 3.20229 13.5495 3.11158L10.4256 2.07048C10.1508 1.97911 9.85467 1.97911 9.57989 2.07048L6.42391 3.12225C6.14979 3.21362 5.85434 3.21362 5.58022 3.12225L2.87843 2.22188C2.44692 2.07782 2.00073 2.39929 2.00073 2.85481V10.4173C2.00073 10.6701 2.14346 10.9015 2.36955 11.0142L5.40615 12.5322C5.78164 12.7203 6.22382 12.7196 6.59931 12.5322L8.00323 11.8299" stroke="#0F1114" stroke-width="1.25" stroke-linecap="round" stroke-linejoin="round"/>
<path fill-rule="evenodd" clip-rule="evenodd" d="M12.8 13.8193C12.5425 14.0694 12.135 14.0694 11.8776 13.8193C11.1966 13.1584 10.0042 11.8218 10.0042 10.5706C10.0042 9.28143 11.0493 8.23633 12.3385 8.23633C13.6277 8.23633 14.6728 9.28143 14.6728 10.5706C14.6728 11.8218 13.4803 13.1584 12.8 13.8193Z" stroke="#0F1114" stroke-width="1.25" stroke-linecap="round" stroke-linejoin="round"/>
<path d="M12.3377 10.329C12.2417 10.329 12.1643 10.407 12.165 10.5024C12.165 10.5985 12.243 10.6758 12.3384 10.6758C12.4337 10.6758 12.5118 10.5978 12.5118 10.5024C12.5118 10.4064 12.4344 10.329 12.3377 10.329" stroke="#0F1114" stroke-width="1.25" stroke-linecap="round" stroke-linejoin="round"/>
</svg>
