<svg width="20" height="20" viewBox="0 0 20 20" fill="none" xmlns="http://www.w3.org/2000/svg">
<path d="M10.1475 8.60236C10.2288 8.68372 10.2288 8.81563 10.1475 8.89699C10.0661 8.97835 9.93421 8.97835 9.85285 8.89699C9.77149 8.81563 9.77149 8.68372 9.85285 8.60236C9.93421 8.521 10.0661 8.521 10.1475 8.60236" stroke="white" stroke-width="1.5" stroke-linecap="round" stroke-linejoin="round"/>
<path d="M6.39748 8.60236C6.47884 8.68372 6.47884 8.81563 6.39748 8.89699C6.31612 8.97835 6.18421 8.97835 6.10285 8.89699C6.02149 8.81563 6.02149 8.68372 6.10285 8.60236C6.18421 8.521 6.31612 8.521 6.39748 8.60236" stroke="white" stroke-width="1.5" stroke-linecap="round" stroke-linejoin="round"/>
<path d="M13.8975 8.60236C13.9788 8.68372 13.9788 8.81563 13.8975 8.89699C13.8161 8.97835 13.6842 8.97835 13.6028 8.89699C13.5215 8.81563 13.5215 8.68372 13.6028 8.60236C13.6842 8.521 13.8161 8.521 13.8975 8.60236" stroke="white" stroke-width="1.5" stroke-linecap="round" stroke-linejoin="round"/>
<path fill-rule="evenodd" clip-rule="evenodd" d="M2.5 13.3372V4.16634C2.5 3.70634 2.87333 3.33301 3.33333 3.33301H16.6667C17.1267 3.33301 17.5 3.70634 17.5 4.16634V16.6663L12.5758 14.2163L3.32917 14.1705C2.87083 14.168 2.5 13.7955 2.5 13.3372Z" stroke="white" stroke-width="1.5" stroke-linecap="round" stroke-linejoin="round"/>
</svg>
