<svg width="20" height="20" viewBox="0 0 20 20" fill="none" xmlns="http://www.w3.org/2000/svg">
<path fill-rule="evenodd" clip-rule="evenodd" d="M15.885 10.4208C16.445 9.8608 17.3534 9.85997 17.9134 10.4208V10.4208C18.4734 10.9808 18.4734 11.8891 17.9125 12.4491L13.1009 17.2566C12.945 17.4125 12.7334 17.5 12.5125 17.5H10.8334V15.8208C10.8334 15.6 10.9209 15.3883 11.0775 15.2316L15.885 10.4208V10.4208Z" stroke="#0F1114" stroke-width="1.25" stroke-linecap="round" stroke-linejoin="round"/>
<path d="M5.83337 7.49992H12.5" stroke="#0F1114" stroke-width="1.25" stroke-linecap="round" stroke-linejoin="round"/>
<path d="M5.83337 10.8334H10" stroke="#0F1114" stroke-width="1.25" stroke-linecap="round" stroke-linejoin="round"/>
<path d="M5.83337 14.1667H8.33337" stroke="#0F1114" stroke-width="1.25" stroke-linecap="round" stroke-linejoin="round"/>
<path d="M16.85 13.5167L14.8167 11.4834" stroke="#0F1114" stroke-width="1.25" stroke-linecap="round" stroke-linejoin="round"/>
<path d="M15.8333 7.49992V4.99992C15.8333 4.07909 15.0875 3.33325 14.1667 3.33325H4.16667C3.24583 3.33325 2.5 4.07909 2.5 4.99992V15.8333C2.5 16.7541 3.24583 17.4999 4.16667 17.4999H7.5" stroke="#0F1114" stroke-width="1.25" stroke-linecap="round" stroke-linejoin="round"/>
<path d="M12.5 2.5V4.16667" stroke="#0F1114" stroke-width="1.25" stroke-linecap="round" stroke-linejoin="round"/>
<path d="M9.16667 2.5V4.16667" stroke="#0F1114" stroke-width="1.25" stroke-linecap="round" stroke-linejoin="round"/>
<path d="M5.83329 2.5V4.16667" stroke="#0F1114" stroke-width="1.25" stroke-linecap="round" stroke-linejoin="round"/>
</svg>
