<svg width="20" height="20" viewBox="0 0 20 20" fill="none" xmlns="http://www.w3.org/2000/svg">
<path d="M15.8333 8.33325V7.49992C15.8333 6.57909 15.0875 5.83325 14.1667 5.83325H10.4458C10.1675 5.83325 9.90667 5.69409 9.7525 5.46242L8.58083 3.70492C8.42583 3.47242 8.16583 3.33325 7.8875 3.33325H4.16667C3.24583 3.33325 2.5 4.07909 2.5 4.99992V15.7108C2.5 16.2391 2.9275 16.6666 3.45583 16.6666V16.6666C3.8775 16.6666 4.25 16.3899 4.37083 15.9858L6.31 9.52159C6.52167 8.81575 7.17083 8.33325 7.90667 8.33325H16.1075C17.22 8.33325 18.02 9.40158 17.7067 10.4691L16.2392 15.4691C16.0308 16.1791 15.38 16.6666 14.64 16.6666H3.45583" stroke="#0F1114" stroke-width="1.25" stroke-linecap="round" stroke-linejoin="round"/>
</svg>
