<svg width="20" height="20" viewBox="0 0 20 20" fill="none" xmlns="http://www.w3.org/2000/svg">
<path d="M2.5 15.0001C2.5 13.1592 3.9925 11.6667 5.83333 11.6667H9.16667C11.0075 11.6667 12.5 13.1592 12.5 15.0001" stroke="#0F1114" stroke-width="1.25" stroke-linecap="round" stroke-linejoin="round"/>
<path d="M13.3334 3.87573C14.4842 3.87573 15.4167 4.80823 15.4167 5.95907C15.4167 7.1099 14.4842 8.0424 13.3334 8.0424" stroke="#0F1114" stroke-width="1.25" stroke-linecap="round" stroke-linejoin="round"/>
<path d="M9.50412 4.16336C10.6109 5.27017 10.6109 7.06467 9.50412 8.17148C8.39731 9.27828 6.60281 9.27828 5.496 8.17148C4.38919 7.06467 4.38919 5.27017 5.496 4.16336C6.60281 3.05655 8.39731 3.05655 9.50412 4.16336" stroke="#0F1114" stroke-width="1.25" stroke-linecap="round" stroke-linejoin="round"/>
<path d="M14.1666 10.8333C16.0075 10.8333 17.5 12.3258 17.5 14.1666" stroke="#0F1114" stroke-width="1.25" stroke-linecap="round" stroke-linejoin="round"/>
</svg>
